<?xml version="1.0" standalone="no"?>
<!DOCTYPE svg PUBLIC "-//W3C//DTD SVG 20010904//EN"
 "http://www.w3.org/TR/2001/REC-SVG-20010904/DTD/svg10.dtd">
<svg version="1.0" xmlns="http://www.w3.org/2000/svg"
 width="140.000000pt" height="140.000000pt" viewBox="0 0 140.000000 140.000000"
 preserveAspectRatio="xMidYMid meet">
<metadata>
Created by potrace 1.14, written by Peter Selinger 2001-2017
</metadata>
<g transform="translate(0.000000,140.000000) scale(0.100000,-0.100000)"
fill="#000000" stroke="none">
<path d="M0 700 l0 -700 700 0 700 0 0 700 0 700 -700 0 -700 0 0 -700z m810
635 c190 -21 389 -150 460 -300 91 -190 53 -346 -126 -523 -52 -50 -94 -97
-94 -102 0 -6 -7 -10 -15 -10 -8 0 -15 -6 -15 -13 0 -7 -10 -19 -22 -26 -33
-21 -151 -51 -162 -41 -4 5 8 32 27 62 35 54 70 139 69 169 0 14 13 18 76 21
86 4 132 22 181 70 39 38 59 74 63 114 l3 29 -84 3 c-91 3 -131 -12 -131 -48
0 -16 -7 -20 -37 -20 -64 0 -68 7 -71 128 l-4 109 58 7 c32 4 61 3 65 -1 4 -4
9 -26 11 -48 l3 -40 89 0 c107 0 116 8 97 78 -45 160 -298 210 -456 89 -90
-68 -124 -173 -91 -284 20 -69 87 -138 164 -170 40 -17 51 -26 46 -37 -4 -9
-14 -36 -22 -61 -19 -56 -45 -94 -97 -142 -37 -35 -44 -38 -101 -38 -57 0 -62
2 -68 25 -3 13 -15 29 -25 35 -24 13 -73 99 -96 168 -9 28 -21 50 -26 46 -11
-7 -12 -41 0 -48 4 -3 16 -34 26 -68 13 -48 27 -73 60 -105 37 -37 40 -43 23
-48 -18 -6 -43 -3 -123 15 -22 5 -52 11 -66 14 -17 4 -29 14 -33 28 -6 23 -43
65 -151 168 -309 298 -85 750 398 800 71 7 90 6 197 -5z"/>
<path d="M605 1266 c-48 -21 -72 -99 -42 -136 23 -29 61 -50 93 -50 50 0 118
89 101 132 -3 7 -6 1 -6 -14 -1 -16 -10 -37 -21 -48 -11 -11 -20 -24 -20 -30
0 -5 -17 -10 -39 -10 -107 0 -125 135 -21 160 28 6 30 8 10 9 -14 0 -39 -6
-55 -13z"/>
<path d="M690 1265 c0 -9 5 -15 11 -13 6 2 11 8 11 13 0 5 -5 11 -11 13 -6 2
-11 -4 -11 -13z"/>
<path d="M730 1240 c0 -5 5 -10 11 -10 5 0 7 5 4 10 -3 6 -8 10 -11 10 -2 0
-4 -4 -4 -10z"/>
<path d="M358 1219 c-20 -8 -33 -27 -55 -79 -25 -63 -31 -70 -56 -70 -50 0
-63 -14 -66 -69 -2 -47 0 -51 21 -51 47 0 49 -7 38 -141 -15 -190 -14 -206 14
-234 49 -49 135 -45 215 10 28 19 55 35 61 35 6 0 13 -13 17 -30 l6 -30 88 0
c49 0 89 4 89 9 0 13 -38 21 -103 21 l-57 0 5 173 c3 94 7 204 10 243 5 82 3
84 -87 84 l-48 0 0 70 0 70 -32 -1 c-18 0 -45 -5 -60 -10z m192 -363 l0 -83
-30 -6 c-24 -5 -30 -12 -30 -32 0 -21 -5 -25 -30 -25 -30 0 -30 1 -30 54 0 29
3 81 6 115 l7 61 53 0 54 0 0 -84z"/>
<path d="M606 1181 c-3 -5 1 -11 9 -14 9 -4 12 -1 8 9 -6 16 -10 17 -17 5z"/>
<path d="M645 1130 c-3 -5 -1 -10 4 -10 6 0 11 5 11 10 0 6 -2 10 -4 10 -3 0
-8 -4 -11 -10z"/>
<path d="M720 1031 c0 -6 5 -13 10 -16 6 -3 10 1 10 9 0 9 -4 16 -10 16 -5 0
-10 -4 -10 -9z"/>
<path d="M618 1023 c12 -2 32 -2 45 0 12 2 2 4 -23 4 -25 0 -35 -2 -22 -4z"/>
<path d="M680 746 c0 -8 4 -17 9 -20 5 -4 7 3 4 14 -6 23 -13 26 -13 6z"/>
<path d="M730 627 c4 -41 5 -41 8 -8 2 18 0 37 -5 42 -5 5 -6 -11 -3 -34z"/>
</g>
</svg>
